<?xml version="1.0" ?><!DOCTYPE svg  PUBLIC '-//W3C//DTD SVG 1.1//EN'  'http://www.w3.org/Graphics/SVG/1.1/DTD/svg11.dtd'><svg enable-background="new 0 0 512 512" id="Layer_1" version="1.1" viewBox="0 0 512 512" height="97.986" width="163.31" xml:space="preserve" xmlns="http://www.w3.org/2000/svg" xmlns:xlink="http://www.w3.org/1999/xlink"><path d="M492.879,442.732c0,34.171-27.701,61.872-61.873,61.872H81.263c-34.171,0-61.873-27.701-61.873-61.872  V92.987c0-34.171,27.702-61.873,61.873-61.873h349.743c34.172,0,61.873,27.701,61.873,61.873V442.732z" fill="#9F9F9F"/><path d="M492.879,417.988c0,34.172-27.701,61.873-61.873,61.873H81.263c-34.171,0-61.873-27.701-61.873-61.873  V68.243c0-34.17,27.702-61.872,61.873-61.872h349.743c34.172,0,61.873,27.702,61.873,61.872V417.988z" fill="#BFBFBF"/><path d="M492.879,417.988V210.682c-0.899-0.877-1.803-1.749-2.725-2.599c-3.994-4.324-8.334-8.374-12.49-12.542  c-4.164-4.139-8.192-8.479-12.51-12.458c-3.994-4.324-8.334-8.374-12.49-12.542c-4.164-4.139-8.192-8.479-12.51-12.458  c-3.994-4.324-8.334-8.374-12.49-12.542c-4.164-4.139-8.192-8.479-12.51-12.458c-3.994-4.324-8.334-8.374-12.49-12.542  c-4.142-4.117-8.15-8.419-12.419-12.404c-6.795-6.343-17.782-6.168-24.353,0.411c-2.156,2.158-4.313,4.317-6.468,6.477  c-8.469,8.479-16.938,16.959-25.406,25.439c-1.064,1.066-2.129,2.132-3.194,3.198c-0.09,0.09-0.315,0.417-0.445,0.446  c-2.477-1.644-5.035-3.162-7.667-4.544c-10.269-5.396-21.605-8.685-33.165-9.642c-21.488-1.78-43.446,4.52-60.502,17.764  c-7.104,5.517-13.306,12.383-19.657,18.734c-8.996,8.996-17.992,17.992-26.988,26.988c-5.435,5.435-11.042,10.746-16.291,16.364  c-13.302,14.236-21.514,32.787-23.135,52.202c-1.597,19.127,3.212,38.574,13.655,54.691c0.46,0.709,0.615,0.607,0.136,1.088  c-0.39,0.39-0.78,0.781-1.17,1.17c-1.442,1.443-2.884,2.887-4.326,4.33c-4.372,4.377-8.745,8.752-13.117,13.129  c-4.147,4.15-8.294,8.301-12.441,12.451c-2.689,2.691-5.741,5.295-7.446,8.756c-2.038,4.138-2.347,9.025-0.853,13.389  c0.763,2.229,1.985,4.291,3.571,6.033c1.927,2.115,4.039,4.167,6.135,6.113c1.995,2.16,4.29,4.059,6.233,6.263  c1.931,2.19,4.167,4.2,6.24,6.258c4.142,4.173,8.219,8.479,12.527,12.479c1.995,2.16,4.29,4.059,6.233,6.263  c1.931,2.19,4.167,4.2,6.24,6.258c4.142,4.173,8.219,8.479,12.527,12.479c1.995,2.16,4.29,4.059,6.233,6.263  c1.931,2.19,4.167,4.2,6.24,6.258c4.142,4.173,8.219,8.479,12.527,12.479c1.995,2.16,4.29,4.059,6.233,6.263  c1.931,2.19,4.167,4.2,6.24,6.258c3.036,3.058,6.039,6.187,9.121,9.216h207.295C465.178,479.861,492.879,452.16,492.879,417.988z" fill="#6F6F6F"/><path d="M390.664,108.542c-6.825-6.806-17.986-6.806-24.765,0l-35.521,35.567  c-14.58-9.681-31.289-14.485-48.059-14.485c-22.353,0-44.981,8.521-61.715,25.579l-52.374,52.375  c-29.863,29.832-33.55,75.971-11.119,109.827l-35.522,35.553c-6.826,6.811-6.826,17.91,0,24.688  c3.396,3.419,7.84,5.146,12.323,5.146c4.485,0,8.941-1.727,12.329-5.146l35.57-35.556c14.544,9.688,31.363,14.515,48.134,14.515  c22.03,0,44.649-8.538,61.709-25.612l52.248-52.367c29.882-29.824,33.605-75.981,11.126-109.801l35.636-35.587  C397.51,126.425,397.51,115.368,390.664,108.542z M334.566,216.911c0,13.985-5.451,27.167-15.349,37.022l-52.264,52.375  c-9.894,9.91-23.31,15.348-37.009,15.348c-7.922,0-15.484-1.919-22.431-5.243l25.749-26.069c6.826-6.795,6.826-17.859,0-24.648  c-6.516-6.824-17.581-6.824-24.375,0l-26.077,26.025c-3.346-6.91-5.242-14.501-5.242-22.43c0-13.975,5.451-27.157,15.358-37.021  l52.053-52.375c9.89-9.903,23.352-15.354,37.341-15.354c7.878,0,15.425,1.94,22.379,5.25l-26.551,26.595  c-6.828,6.827-6.828,17.859,0,24.695c3.402,3.388,7.896,5.093,12.338,5.093c4.448,0,8.891-1.705,12.311-5.093l26.525-26.593  C332.664,201.4,334.566,209,334.566,216.911z" fill="#FFFFFF"/></svg>